<svg width="64" height="64" xmlns="http://www.w3.org/2000/svg" style="vector-effect: non-scaling-stroke;" stroke="null" preserveAspectRatio="xMidYMid meet" version="1.0">
 <metadata style="vector-effect: non-scaling-stroke;" stroke="null">Created by potrace 1.15, written by Peter Selinger 2001-2017</metadata>

 <g stroke="null">
  <title stroke="null">Layer 1</title>
  <g stroke="null" id="svg_1" fill="#d6d6d6" transform="translate(0 1280) scale(0.1 -0.1)">
   <path stroke="null" id="svg_2" d="m131.52866,12779.84995c-29.78758,-2.75407 -56.58468,-15.33734 -73.17894,-34.33094c-6.5087,-7.45499 -11.61012,-16.80934 -14.19015,-26.16369c-1.81775,-6.31537 -2.2282,-17.61657 -0.87955,-24.02691c2.05229,-10.16158 7.50553,-20.75051 14.65924,-28.53789l3.8114,-4.17859l-3.63549,-4.60595c-17.64973,-22.83981 -31.37078,-50.71293 -37.93812,-77.06655c-2.2282,-8.78454 -3.34231,-15.24237 -4.45641,-25.64137c-0.52773,-4.55847 -1.17274,-9.59177 -1.46592,-11.15874c-1.29001,-7.40751 -0.4691,-15.09992 2.58003,-24.45427c1.1141,-3.2764 2.81457,-8.83203 3.87004,-12.34584c14.19015,-48.14879 59.04743,-86.136 128.70815,-108.88084c14.95243,-4.89085 35.94446,-10.25655 51.42462,-13.15307l5.68779,-1.04465l-3.92868,-4.17859c-3.92868,-4.13111 -3.92868,-4.13111 -10.37874,-6.55279c-8.91282,-3.32388 -11.72739,-3.89369 -18.82247,-3.89369c-10.20283,0 -16.12517,1.51949 -35.00627,8.97448c-18.70519,7.40751 -27.67665,9.4968 -37.1172,8.54712c-9.32328,-0.94968 -17.47382,-5.50815 -23.98252,-13.48546c-6.5087,-7.88235 -8.79555,-13.77036 -8.32645,-21.13039c0.4691,-7.36002 3.8114,-12.82068 11.66876,-19.04109c6.09824,-4.79589 13.9556,-8.83203 31.54669,-16.19205c18.06019,-7.50247 23.92388,-9.68674 31.95715,-11.72855c3.22503,-0.80723 6.15688,-1.56697 6.5087,-1.70942c0.52773,-0.14245 0.4691,-0.94968 -0.05864,-3.18143c-1.46592,-5.55563 -2.75594,-14.34017 -3.10776,-21.27284l-0.41046,-6.88518l-21.10931,-1.75691c-11.61012,-0.94968 -23.10297,-2.13678 -25.50708,-2.56414c-16.30108,-2.89652 -26.21073,-9.73422 -30.6085,-21.0829c-1.23138,-3.18143 -1.34865,-4.4635 -1.34865,-12.10842c0.05864,-7.02763 0.29318,-9.40183 1.34865,-13.29552c4.45641,-16.23953 14.83515,-21.65271 40.2836,-20.98793c13.19332,0.37987 65.38022,4.89085 77.10762,6.69525c4.04595,0.61729 4.57368,0.56981 6.45007,-0.18994c7.09507,-2.89652 21.87159,-6.60028 33.42307,-8.3097c4.33914,-0.66478 8.50236,-1.32955 9.26464,-1.42452c0.99683,-0.18994 1.29001,-0.56981 1.29001,-1.80439c0.05864,-4.70092 3.40094,-10.54145 8.26781,-14.38766c5.98097,-4.84337 14.42469,-7.78738 24.27571,-8.49964c5.16005,-0.42736 50.54507,0.56981 56.87786,1.1871c23.80661,2.42168 42.9809,10.82635 55.41194,24.31181c1.87638,1.99433 3.51822,3.8462 3.63549,4.13111c0.05864,0.23742 2.11093,-0.09497 4.51505,-0.75974c9.206,-2.46917 18.93974,-1.85188 28.20438,1.80439c3.87004,1.56697 5.98097,2.84904 9.73374,5.84053c3.98731,3.2764 5.21869,4.65343 7.74008,8.83203c6.33279,10.49397 6.5087,21.46277 0.41046,31.57687c-7.03644,11.68107 -19.3502,18.09141 -34.77172,17.99644l-6.09824,-0.04748l0.35182,1.472c2.16957,9.4968 4.16322,33.76113 3.75277,45.10981c-0.23455,4.65343 -0.05864,8.11977 0.29318,9.16441c1.34865,3.51382 -1.64184,27.30331 -4.63232,36.94256c-0.58637,1.94684 -1.64184,3.79872 -2.58003,4.70092c-1.1141,0.99716 -2.28684,3.32388 -3.75277,7.26505c-1.17274,3.18143 -2.87321,7.54996 -3.87004,9.68674c-2.05229,4.60595 -2.05229,4.70092 -0.70364,4.70092c1.5832,0 19.40884,4.55847 28.26302,7.21757c64.26612,19.37348 109.41659,53.7519 126.30404,96.25009c9.55783,23.93194 11.2583,55.46133 4.74959,88.17781l-0.41046,1.94684l7.56417,-0.23742c20.81612,-0.61729 38.52449,4.84337 52.36282,16.0496c16.41835,13.24804 24.45162,33.38126 21.69568,54.51165c-2.11093,16.3345 -10.20283,32.52655 -22.98569,46.29691c-4.86687,5.22324 -15.94926,14.15024 -22.45796,18.04392c-10.43738,6.26789 -23.51343,11.20623 -35.47537,13.48546c-8.50236,1.56697 -21.51977,1.99433 -29.31849,0.9022c-13.89696,-1.94684 -24.0998,-5.84053 -34.47854,-13.0581c-4.04595,-2.84904 -11.55148,-10.11409 -13.42787,-13.01062l-0.87955,-1.42452l-4.74959,3.79872c-30.66714,24.21685 -70.36437,41.73845 -112.40707,49.57331c-32.77807,6.12544 -71.41983,7.07512 -106.71929,2.51665c-6.80189,-0.85471 -18.41201,-2.80156 -23.04433,-3.8462l-3.45958,-0.75974l-3.45958,3.13394c-19.11565,17.14173 -50.66234,26.35363 -80.86038,23.55207z"/>
  </g>
 </g>
</svg>